<?xml version="1.0" encoding="UTF-8"?>
<svg width="18px" height="18px" viewBox="0 0 18 18" version="1.1" xmlns="http://www.w3.org/2000/svg" xmlns:xlink="http://www.w3.org/1999/xlink">
    <!-- Generator: Sketch 39.1 (31720) - http://www.bohemiancoding.com/sketch -->
    <title>navigation--menu--expanded--close</title>
    <desc>Created with Sketch.</desc>
    <defs></defs>
    <g id="Page-1" stroke="none" stroke-width="1" fill="none" fill-rule="evenodd">
        <g id="iPhone-7" transform="translate(-336.000000, -19.000000)" fill="#838C93">
            <g id="navigation--menu--expanded--close" transform="translate(328.000000, 11.000000)">
                <g id="navigation--menu--expanded--close--dark">
                    <path d="M27.9705627,15.9705627 L17.9705627,15.9705627 L17.9705627,5.97256275 C17.9705627,5.41856275 17.5235627,4.97056275 16.9705627,4.97056275 C16.4175627,4.97056275 15.9705627,5.41856275 15.9705627,5.97256275 L15.9705627,15.9705627 L5.97056275,15.9705627 C5.41756275,15.9705627 4.97056275,16.4185627 4.97056275,16.9705627 C4.97056275,17.5245627 5.41756275,17.9725627 5.97056275,17.9725627 L15.9705627,17.9725627 L15.9705627,27.9705627 C15.9705627,28.5235627 16.4175627,28.9705627 16.9705627,28.9705627 C17.5235627,28.9705627 17.9705627,28.5235627 17.9705627,27.9705627 L17.9705627,17.9725627 L27.9705627,17.9725627 C28.5235627,17.9725627 28.9705627,17.5245627 28.9705627,16.9705627 C28.9705627,16.4185627 28.5235627,15.9705627 27.9705627,15.9705627" transform="translate(16.970563, 16.970563) rotate(-45.000000) translate(-16.970563, -16.970563) "></path>
                </g>
            </g>
        </g>
    </g>
</svg>